<svg viewBox="0 0 379 512" fill="none" xmlns="http://www.w3.org/2000/svg">
  <path
    d="M348.844 93.344L329.938 30.781C334.563 27.812 337.688 22.625 337.688 16.703C337.688 7.469 330.219 0 320.969 0H63.141C45.75 0 29.859 7.094 18.5 18.5C7.09403 29.859 -0.0159731 45.75 2.69476e-05 63.125V470.75C2.69476e-05 493.531 18.469 512 41.25 512H343.75C362.938 512 378.5 496.453 378.5 477.266V127.578C378.5 110.125 365.594 95.844 348.844 93.344ZM63.141 92.844C54.875 92.844 47.547 89.531 42.125 84.141C36.719 78.688 33.406 71.375 33.406 63.125C33.406 54.875 36.719 47.547 42.125 42.109C47.547 36.718 54.875 33.406 63.141 33.406H305.125L323.094 92.844H63.141Z"
    fill="#3B82F6" />
  <path
    d="M136.923 236.165C136.775 236.165 136.627 236.21 136.502 236.297L58.8539 289.302C58.6481 289.443 58.5266 289.673 58.5266 289.924V304.182C58.5266 304.429 58.6481 304.663 58.8539 304.8L136.502 357.81C136.627 357.896 136.775 357.941 136.923 357.941C137.045 357.941 137.162 357.909 137.274 357.855C137.521 357.723 137.673 357.468 137.673 357.188V334.476C137.673 334.233 137.551 333.998 137.346 333.862L83.4299 297.049L137.346 260.249C137.551 260.105 137.673 259.874 137.673 259.623V236.919C137.673 236.639 137.521 236.383 137.274 236.255C137.162 236.194 137.045 236.165 136.923 236.165Z"
    fill="white" />
  <path
    d="M319.646 289.302L241.998 236.297C241.872 236.21 241.724 236.165 241.576 236.165C241.454 236.165 241.337 236.193 241.226 236.255C240.979 236.383 240.827 236.639 240.827 236.919V259.631C240.827 259.878 240.948 260.109 241.154 260.249L295.07 297.049L241.154 333.862C240.948 333.998 240.827 334.232 240.827 334.484V357.188C240.827 357.468 240.979 357.723 241.226 357.855C241.337 357.908 241.455 357.941 241.576 357.941C241.724 357.941 241.872 357.896 241.998 357.809L319.646 304.799C319.852 304.663 319.973 304.429 319.973 304.181V289.924C319.973 289.673 319.852 289.443 319.646 289.302Z"
    fill="white" />
  <path
    d="M224.743 223.736H203.04C202.719 223.736 202.434 223.938 202.332 224.238L153.046 367.158C152.968 367.385 153.005 367.64 153.145 367.833C153.287 368.031 153.514 368.151 153.757 368.151H175.462C175.781 368.151 176.066 367.949 176.171 367.644L225.454 224.733C225.532 224.502 225.495 224.247 225.355 224.049C225.213 223.855 224.986 223.736 224.743 223.736Z"
    fill="white" />
</svg>
